<?xml version="1.0" encoding="utf-8"?>
<!-- Generator: Adobe Illustrator 17.0.0, SVG Export Plug-In . SVG Version: 6.00 Build 0)  -->
<!DOCTYPE svg PUBLIC "-//W3C//DTD SVG 1.1//EN" "http://www.w3.org/Graphics/SVG/1.1/DTD/svg11.dtd">
<svg version="1.1" id="Layer_1" xmlns="http://www.w3.org/2000/svg" xmlns:xlink="http://www.w3.org/1999/xlink" x="0px" y="0px"
	 width="130px" height="21.968px" viewBox="0 0 130 21.968" enable-background="new 0 0 130 21.968" xml:space="preserve">
<g>
	<path fill="#C9CE00" d="M66.533,5.052c1.32,0.81,2.787,1.543,3.971,2.167c1.17,0.616,1.123,0.364,0.473,1.398
		c-0.569,0.906-1.496,2.125-2.166,2.964c-0.409,0.512-0.874,0.979-1.41,1.573c1.954,1.937,3.49,4.087,3.564,7.037
		c0.01,0.409-0.036,0.472-0.4,0.567c-1.242,0.323-2.467,0.592-3.579,0.85c-0.416,0.108-0.517-0.097-0.563-0.194
		c-0.895-1.89-1.679-3.579-2.499-5.25c-0.46-0.938-0.997-1.275-2.037-0.942c-0.296,0.095-0.592,0.182-0.756,0.254
		c-0.303,0.132-0.369,0.572-0.215,1.448c0.224,1.276,0.421,2.379,0.628,3.784c0.063,0.427,0.063,0.427-0.28,0.511
		c-0.736,0.181-3.91,0.562-5.075,0.517c-1.327-0.051-1.344,0.116-1.537-1.271c-0.907-6.509-0.088-13.106,1.906-19.329
		c0.424-1.324,0.21-1.256,1.596-0.951c0.695,0.153,1.582,0.345,2.447,0.548c0.323,0.076,0.385,0.201,0.323,0.516
		c-0.646,3.255-0.929,6.499-0.669,9.966c3.266-0.778,4.473-3.337,5.837-5.955C66.153,5.142,66.276,4.894,66.533,5.052z"/>
	<path fill="#D8004E" d="M4.528,0.158c1.654,0.22,2.961,0.427,4.58,0.642C8.171,2.712,3.505,6.787,4.88,13.698
		c0.674,2.914,3.17,4.545,6.043,3.886c2.118-0.486,3.375-3.195,2.398-5.172c-0.609-1.233-2.084-1.732-3.731-1.154
		c-0.83,0.291-1.601,0.759-2.545,1.219c-0.207-1.032-0.605-2.839-0.771-3.846c2.338-2.724,9.374-1.937,11.085,1.531
		c1.179,2.39,1.787,9.529-3.898,11.34c-6.143,1.584-11.074-1.038-12.648-4.955C-1.18,11.583,0.651,6.158,4.528,0.158z"/>
	<path fill="#00AFAF" d="M120.922,9.098c0.58-0.97,1.021-1.885,1.62-2.677c2.014-2.664,4.996-2.377,6.328,0.696
		c0.585,1.349,0.898,2.881,1.031,4.358c0.277,3.079-0.052,6.158-0.713,9.163c-0.341,1.549-0.279,1.073-1.407,0.918
		c-1.047-0.144-2.045-0.547-3.148-0.849c0.173-3.298,1.648-6.637,1.122-9.963c-0.067-0.424-1.241-2.61-2.202,0.472
		c-0.529,1.694-0.744,5.817-0.811,8.207c-0.015,0.527-0.168,0.494-0.419,0.508c-0.646,0.035-1.293,0.049-2.007,0.107
		c-0.423,0.034-0.536-0.133-0.554-0.383c-0.099-1.404,0.084-2.702-0.272-4.855c-0.38-2.302-1.063-4.29-1.427-4.905
		c-0.111-0.188-1.272-0.409-1.349,0.92c-0.156,2.682,0.35,5.271,0.879,7.868c0.1,0.493,0.306,1.326,0.387,1.872
		c0.052,0.346,0.083,0.503-0.314,0.565c-1.069,0.166-2.434,0.277-3.863,0.42c-0.452,0.045-0.438-0.412-0.466-0.582
		c-0.609-3.782-0.832-7.556-0.043-11.329c0.321-1.538,0.947-2.984,2.162-4.073c1.651-1.48,3.555-1.14,4.535,0.879
		C120.38,7.231,120.588,8.119,120.922,9.098z"/>
	<path fill="#6C9300" d="M73.083,16.45c0.795,0.138,1.593,0.293,2.397,0.414c1.755,0.265,3.508,0.553,5.272,0.744
		c0.569,0.062,1.212-0.042,1.736-0.269c0.424-0.184,1.002-0.669,1.002-1.019c-0.001-0.39-0.508-0.921-0.923-1.134
		c-0.565-0.29-1.244-0.4-1.887-0.477c-1.356-0.162-2.722-0.241-4.082-0.373c-1.674-0.162-3.283-0.66-3.884-2.387
		c-0.649-1.867-0.269-3.697,1.167-5.163c1.22-1.245,2.77-1.881,4.447-2.062c3.641-0.393,7.21,0.16,11.019,0.998
		c-0.391,1.834-0.756,3.545-1.137,5.333c-2.142-0.572-4.059-1.181-6.018-1.572c-1.207-0.241-5.068-0.515-5.295,0.596
		c-0.153,0.749,0.664,1.299,1.075,1.385c1.621,0.34,3.277,0.506,4.914,0.777c1.224,0.203,2.467,0.367,3.647,0.731
		c1.538,0.474,2.478,1.586,2.688,3.253c0.226,1.786-0.39,3.287-1.922,4c-1.382,0.643-3.021,1.148-4.5,1.253
		c-3.074,0.219-6.174,0.103-9.261,0.049c-1.272-0.022-1.362-0.231-1.16-1.587c0.142-0.952,0.294-1.903,0.455-2.852
		C72.859,16.921,72.955,16.766,73.083,16.45z"/>
	<path fill="#0079A3" d="M95.688,11.322c-0.261-1.493-0.525-3.005-0.79-4.524c3.314-1.639,6.618-2.509,10.132-2.147
		c3.984,0.41,7.04,3.084,7.063,7.599c0.006,1.199,0.063,2.438-0.199,3.589c-0.835,3.666-3.562,5.902-7.458,6.027
		c-1.576,0.05-3.207-0.192-4.74-0.591c-2.584-0.672-3.965-2.232-3.869-4.3c0.111-2.39,1.049-4.433,4.044-5.286
		c1.869-0.532,3.767-0.355,5.593,0.381c0.703,0.283,1.063,0.665,0.774,1.512c-0.308,0.903-0.493,1.849-0.76,2.886
		c-0.742-0.277-1.429-0.632-2.156-0.778c-0.915-0.183-1.87-0.303-2.796-0.245c-0.766,0.048-1.258,0.636-1.32,1.465
		c-0.058,0.78,0.538,1.019,1.094,1.228c1.412,0.53,2.847,0.805,4.36,0.43c2.152-0.534,3.317-1.756,3.509-3.769
		c0.206-2.154-1.045-4.37-2.923-5.129c-1.372-0.555-2.813-0.606-4.202-0.205C99.296,9.972,97.595,10.652,95.688,11.322z"/>
	<path fill="#E8CC00" d="M53.337,13.41c0.414,6.085-4.862,9.385-10.207,8.426c-4.306-0.773-6.842-3.768-6.541-8.776
		c0.074-1.233,0.317-2.515,0.773-3.655c1.357-3.39,4.055-4.902,7.549-4.856c3.394,0.044,6.827,1.733,7.943,5.483
		C53.176,11.109,53.185,12.281,53.337,13.41z M41.273,13.533c0.034,0.48,0.005,0.856,0.096,1.199c0.381,1.439,1.2,2.478,2.705,2.801
		c1.482,0.318,2.878,0.159,3.871-1.133c1.097-1.427,1.159-4.886,0.125-6.375c-1.107-1.595-3.11-1.919-4.538-1.034
		C41.749,10.096,41.545,11.856,41.273,13.533z"/>
	<path fill="#EA2C00" d="M26.948,21.912c-0.666-0.134-1.841-0.308-2.983-0.611c-2.384-0.634-3.892-2.283-4.61-4.595
		c-0.83-2.674-0.734-5.355,0.555-7.893c1.694-3.333,5.344-4.486,8.641-4.044c2.092,0.281,4.125,0.855,5.376,2.786
		c2.01,3.103,2.65,6.485,1.093,9.921C33.586,20.643,30.821,21.892,26.948,21.912z M27.595,17.692
		c1.152,0.006,1.883-0.303,2.529-1.069c1.233-1.461,1.425-4.889,0.363-6.476c-1.335-1.996-3.632-2.191-5.325-0.488
		c-0.936,0.942-1.342,2.104-1.53,3.376C23.256,15.58,25.047,17.68,27.595,17.692z"/>
	<path fill="#0090C9" d="M92.075,21.979c-1.297-0.038-2.198-1.028-2.135-2.345c0.064-1.324,1.056-2.251,2.328-2.173
		c1.214,0.074,2.222,1.056,2.205,2.149C94.452,20.935,93.357,22.016,92.075,21.979z"/>
</g>
</svg>
